<?xml version="1.0" standalone="no"?>
<!DOCTYPE svg PUBLIC "-//W3C//DTD SVG 20010904//EN"
 "http://www.w3.org/TR/2001/REC-SVG-20010904/DTD/svg10.dtd">
<svg version="1.0" xmlns="http://www.w3.org/2000/svg"
 width="100.000000pt" height="100.000000pt" viewBox="0 0 100.000000 100.000000"
 preserveAspectRatio="xMidYMid meet">
<metadata>
Created by potrace 1.10, written by Peter Selinger 2001-2011
</metadata>
<g transform="translate(0.000000,100.000000) scale(0.050000,-0.050000)"
fill="#a48989" stroke="none">
<path d="M0 1000 l0 -1000 1000 0 1000 0 0 1000 0 1000 -1000 0 -1000 0 0
-1000z m1719 751 c53 -64 -25 -162 -94 -119 -69 44 -45 148 35 148 19 0 46
-13 59 -29z m-458 -63 c762 -297 547 -1422 -271 -1417 -296 2 -706 272 -596
393 41 46 86 14 47 -33 -22 -26 -20 -31 8 -31 19 0 65 -35 104 -78 373 -416
1081 -104 1072 474 -1 110 -11 175 -26 185 -14 8 -19 29 -13 46 12 32 -16 66
-31 38 -5 -8 -6 -4 -2 10 3 14 -3 25 -14 25 -10 0 -18 7 -16 15 18 80 -185
293 -310 327 -96 26 -353 35 -353 13 0 -8 -15 -15 -33 -15 -98 0 -343 -222
-391 -354 -13 -36 -29 -66 -35 -66 -10 0 -10 -134 0 -160 2 -5 3 -17 1 -25 -1
-8 7 -15 18 -15 11 0 20 -13 20 -30 0 -16 8 -30 17 -30 10 0 13 -21 8 -47 -7
-38 -22 -48 -72 -48 -101 -2 -103 -3 -57 -46 67 -62 53 -159 -24 -159 -80 0
-121 83 -68 136 16 16 25 90 25 199 2 522 514 880 992 693z m519 -168 c0 -27
-13 -40 -40 -40 -27 0 -40 13 -40 40 0 27 13 40 40 40 27 0 40 -13 40 -40z
m-535 -33 c134 -68 42 -192 -103 -140 -146 53 -262 19 -262 -77 0 -57 32 -83
207 -170 368 -182 299 -620 -97 -620 -166 0 -310 85 -310 182 0 92 57 105 159
37 141 -95 301 -64 301 58 0 83 -40 123 -202 203 -216 106 -294 260 -213 418
75 145 341 201 520 109z m-945 -67 c0 -27 -13 -40 -40 -40 -27 0 -40 13 -40
40 0 27 13 40 40 40 27 0 40 -13 40 -40z m1360 -940 c0 -27 -13 -40 -40 -40
-27 0 -40 13 -40 40 0 27 13 40 40 40 27 0 40 -13 40 -40z m-1120 -220 c0 -27
-13 -40 -40 -40 -27 0 -40 13 -40 40 0 27 13 40 40 40 27 0 40 -13 40 -40z"/>
<path d="M328 951 c-16 -40 7 -71 53 -71 28 0 39 14 39 50 0 56 -73 73 -92 21z"/>
<path d="M915 1477 c-258 -71 -234 -356 41 -481 152 -69 224 -140 224 -220 0
-165 -200 -230 -360 -116 -73 52 -104 51 -96 -3 26 -177 441 -182 524 -7 86
180 21 315 -207 429 -316 159 -240 400 98 311 101 -26 121 -23 121 23 0 60
-214 99 -345 64z m260 -30 c25 -6 45 -20 45 -31 0 -10 -10 -12 -23 -4 -12 8
-73 20 -135 28 l-112 15 90 2 c50 1 110 -3 135 -10z m-322 -59 c-49 -46 -56
-65 -50 -140 8 -100 -12 -118 -30 -28 -15 76 11 147 70 188 69 48 74 39 10
-20z m140 -329 c113 -49 227 -131 227 -164 0 -12 -25 1 -55 30 -30 29 -107 76
-170 105 -63 29 -115 57 -115 61 0 14 12 11 113 -32z m229 -384 c-11 -29 -50
-68 -85 -87 l-66 -34 75 71 c59 55 75 86 77 147 3 68 4 70 11 17 4 -34 -1 -85
-12 -114z m-288 -95 c24 0 50 -10 57 -22 10 -16 -6 -18 -53 -8 -76 16 -178 70
-178 94 0 8 29 -2 65 -24 36 -22 85 -40 109 -40z"/>
</g>
</svg>
